<svg width="100" height="100" viewBox="0 0 100 100" xmlns="http://www.w3.org/2000/svg">
  <!-- Astronaut character -->
  <circle cx="50" cy="40" r="20" fill="#F8F9FA" /> <!-- Helmet -->
  <circle cx="50" cy="40" r="15" fill="#E9ECEF" /> <!-- Face area -->
  <rect x="40" y="60" width="20" height="30" rx="10" fill="#F8F9FA" /> <!-- Body -->
  
  <!-- Space suit details -->
  <rect x="35" y="60" width="5" height="25" rx="2" fill="#F8F9FA" /> <!-- Left arm -->
  <rect x="60" y="60" width="5" height="25" rx="2" fill="#F8F9FA" /> <!-- Right arm -->
  <rect x="40" y="90" width="8" height="10" rx="2" fill="#F8F9FA" /> <!-- Left leg -->
  <rect x="52" y="90" width="8" height="10" rx="2" fill="#F8F9FA" /> <!-- Right leg -->
  
  <!-- Helmet visor -->
  <path d="M40 40C40 34.477 44.477 30 50 30C55.523 30 60 34.477 60 40C60 45.523 55.523 50 50 50C44.477 50 40 45.523 40 40Z" fill="#ADB5BD" />
  
  <!-- Oxygen tank -->
  <rect x="42" y="55" width="16" height="10" rx="3" fill="#6C757D" />
  
  <!-- Stars on suit -->
  <circle cx="45" cy="70" r="2" fill="#FFD700" />
  <circle cx="55" cy="75" r="2" fill="#FFD700" />
  <circle cx="50" cy="65" r="2" fill="#FFD700" />
</svg>
