<svg width="100" height="100" viewBox="0 0 100 100" xmlns="http://www.w3.org/2000/svg">
  <!-- Underwater location -->
  <circle cx="50" cy="50" r="40" fill="#277DA1" />
  
  <!-- Bubbles -->
  <circle cx="30" cy="30" r="3" fill="#F8F9FA" opacity="0.6" />
  <circle cx="35" cy="20" r="2" fill="#F8F9FA" opacity="0.4" />
  <circle cx="25" cy="40" r="4" fill="#F8F9FA" opacity="0.5" />
  <circle cx="70" cy="25" r="3" fill="#F8F9FA" opacity="0.6" />
  <circle cx="75" cy="35" r="2" fill="#F8F9FA" opacity="0.4" />
  
  <!-- Fish -->
  <path d="M60 50L70 45L70 55L60 50Z" fill="#F9C74F" />
  <circle cx="65" cy="50" r="1" fill="#212529" />
  
  <!-- Seaweed -->
  <path d="M20 70C20 70 25 60 20 50C15 40 20 30 20 30" stroke="#4D908E" stroke-width="2" />
  <path d="M30 70C30 70 35 60 30 50C25 40 30 30 30 30" stroke="#4D908E" stroke-width="2" />
  <path d="M80 70C80 70 75 60 80 50C85 40 80 30 80 30" stroke="#4D908E" stroke-width="2" />
</svg>
